<svg width="128" height="128" viewBox="0 0 128 128" fill="none" xmlns="http://www.w3.org/2000/svg">
<path d="M34.0682 88H23.5227L39.5909 41.4545H52.2727L68.3182 88H57.7727L46.1136 52.0909H45.75L34.0682 88ZM33.4091 69.7045H58.3182V77.3864H33.4091V69.7045ZM88.0227 88.6818C84.4318 88.6818 81.3409 87.9545 78.75 86.5C76.1742 85.0303 74.1894 82.9545 72.7955 80.2727C71.4015 77.5758 70.7045 74.3864 70.7045 70.7045C70.7045 67.1136 71.4015 63.9621 72.7955 61.25C74.1894 58.5379 76.1515 56.4242 78.6818 54.9091C81.2273 53.3939 84.2121 52.6364 87.6364 52.6364C89.9394 52.6364 92.0833 53.0076 94.0682 53.75C96.0682 54.4773 97.8106 55.5758 99.2955 57.0455C100.795 58.5152 101.962 60.3636 102.795 62.5909C103.629 64.803 104.045 67.3939 104.045 70.3636V73.0227H74.5682V67.0227H94.9318C94.9318 65.6288 94.6288 64.3939 94.0227 63.3182C93.4167 62.2424 92.5758 61.4015 91.5 60.7955C90.4394 60.1742 89.2045 59.8636 87.7955 59.8636C86.3258 59.8636 85.0227 60.2045 83.8864 60.8864C82.7652 61.553 81.8864 62.4545 81.25 63.5909C80.6136 64.7121 80.2879 65.9621 80.2727 67.3409V73.0455C80.2727 74.7727 80.5909 76.2652 81.2273 77.5227C81.8788 78.7803 82.7955 79.75 83.9773 80.4318C85.1591 81.1136 86.5606 81.4545 88.1818 81.4545C89.2576 81.4545 90.2424 81.303 91.1364 81C92.0303 80.697 92.7955 80.2424 93.4318 79.6364C94.0682 79.0303 94.553 78.2879 94.8864 77.4091L103.841 78C103.386 80.1515 102.455 82.0303 101.045 83.6364C99.6515 85.2273 97.8485 86.4697 95.6364 87.3636C93.4394 88.2424 90.9015 88.6818 88.0227 88.6818Z" fill="black"/>
</svg>
