<svg width="128" height="128" viewBox="0 0 128 128" fill="none" xmlns="http://www.w3.org/2000/svg">
<g clip-path="url(#clip0_1_2)">
<rect width="128" height="128" fill="#E6E5E5"/>
<path d="M52.8895 57.8944C53.2684 51.1341 56.5789 45.1781 61.5732 40.956C66.4709 36.809 73.0632 34.2744 80.2562 34.2744C87.4419 34.2744 94.0343 36.809 98.9356 40.956C103.926 45.1781 107.237 51.134 107.619 57.8872C107.998 64.8335 105.206 71.2864 100.308 76.0697C95.3141 80.9353 88.2106 83.9885 80.2562 83.9885C72.3018 83.9885 65.1839 80.9353 60.1932 76.0697C55.2919 71.2864 52.5069 64.8335 52.8895 57.8944Z" fill="white"/>
<path d="M66.2152 58.5012C66.4096 55.0324 68.1082 51.9763 70.6708 49.81C73.1839 47.6821 76.5665 46.3816 80.2572 46.3816C83.9442 46.3816 87.3268 47.6821 89.8417 49.81C92.4025 51.9763 94.1011 55.0324 94.2973 58.4975C94.4918 62.0616 93.0592 65.3726 90.5461 67.827C87.9835 70.3236 84.3386 71.8902 80.2572 71.8902C76.1757 71.8902 72.5235 70.3236 69.9628 67.827C67.4479 65.3726 66.0189 62.0616 66.2152 58.5012Z" fill="#265787"/>
<path d="M43.8544 65.5102C43.8782 66.8676 44.3111 69.5055 44.9605 71.5655C46.3252 75.9258 48.6402 79.9595 51.8613 83.5145C55.1668 87.1685 59.2373 90.1035 63.9388 92.1873C68.8805 94.3757 74.235 95.491 79.7968 95.4818C85.3494 95.4745 90.7039 94.3372 95.6457 92.1323C100.347 90.0283 104.414 87.0805 107.714 83.4246C110.933 79.8549 113.245 75.8139 114.613 71.4536C115.301 69.2505 115.736 67.0144 115.91 64.771C116.08 62.5606 116.009 60.3465 115.695 58.1343C115.083 53.8235 113.591 49.7788 111.295 46.0917C109.194 42.7036 106.487 39.7375 103.267 37.241L103.275 37.2354L70.7864 12.29C70.7571 12.268 70.7332 12.2442 70.7021 12.224C68.5705 10.5877 64.9862 10.5932 62.6419 12.2332C60.2719 13.8914 60.0004 16.6337 62.1099 18.3635L62.1007 18.3727L75.6512 29.3917L34.3506 29.4358H34.2955C30.8818 29.4394 27.6001 31.6792 26.9508 34.5096C26.2831 37.3932 28.6017 39.7852 32.1512 39.798L32.1457 39.8109L53.0793 39.7705L15.7245 68.4434C15.6768 68.4782 15.6254 68.5149 15.5814 68.5498C12.0576 71.2481 10.9185 75.735 13.138 78.5745C15.3906 81.4618 20.1801 81.4673 23.7406 78.5911L44.1277 61.9057C44.1277 61.9057 43.8305 64.1583 43.8544 65.5102ZM96.2418 73.0531C92.0411 77.3327 86.1602 79.7596 79.7968 79.7724C73.4242 79.7834 67.5433 77.3786 63.3426 73.1063C61.2899 71.0243 59.7821 68.6287 58.8521 66.0771C57.9404 63.5695 57.5864 60.9078 57.8212 58.2223C58.0431 55.5974 58.8246 53.0935 60.0719 50.828C61.2973 48.6011 62.9849 46.5888 65.0687 44.8866C69.152 41.559 74.3506 39.7577 79.7877 39.7503C85.2302 39.743 90.4251 41.5278 94.512 44.8444C96.5922 46.5393 98.278 48.5443 99.5033 50.7675C100.756 53.0311 101.532 55.5258 101.763 58.1581C101.994 60.84 101.64 63.498 100.729 66.0074C99.7968 68.5663 98.2945 70.9619 96.2418 73.0531Z" fill="#EA7600"/>
<path d="M89.6097 108.44C89.7557 106.811 91.0149 105.778 92.9382 105.778C94.8641 105.778 96.1224 106.811 96.2684 108.44H89.6097ZM96.0712 112.462C95.5786 113.669 94.4176 114.383 92.8409 114.383C90.8664 114.383 89.5372 113.15 89.4834 111.203H100.835V110.63C100.835 105.753 97.9715 103.011 92.8409 103.011C87.8589 103.011 84.8463 105.778 84.8463 110.117C84.8463 114.483 87.9058 117.245 92.8409 117.245C95.8023 117.245 98.0986 116.23 99.514 114.446L96.0712 112.462Z" fill="#265787"/>
<path d="M39.244 108.448C39.3943 106.819 40.6535 105.786 42.5785 105.786C44.501 105.786 45.7593 106.819 45.907 108.448H39.244ZM45.7097 112.469C45.2163 113.68 44.0562 114.394 42.476 114.394C40.5049 114.394 39.1723 113.158 39.1203 111.21H50.469V110.641C50.469 105.76 47.6066 103.018 42.476 103.018C37.4915 103.018 34.4848 105.786 34.4848 110.125C34.4848 114.491 37.5427 117.253 42.476 117.253C45.4366 117.253 47.7347 116.242 49.1526 114.455L45.7097 112.469Z" fill="#265787"/>
<path d="M33.4681 100.062H29.3748V116.808H33.4681V100.062Z" fill="#265787"/>
<path d="M51.4874 104.511H55.6038V105.508C57.061 103.953 58.811 103.167 60.7847 103.167C63.058 103.167 64.779 103.953 65.6677 105.292C66.4095 106.397 66.4582 107.731 66.4582 109.485V116.808H62.3358V110.373C62.3358 107.703 61.7989 106.47 59.4547 106.47C57.0858 106.47 55.6038 107.882 55.6038 110.25V116.808H51.4874V104.511Z" fill="#265787"/>
<path d="M79.7149 110.325C79.7149 112.617 78.1834 114.12 75.8136 114.12C73.4421 114.12 71.9106 112.668 71.9106 110.351C71.9106 108 73.4216 106.549 75.8136 106.549C78.1834 106.549 79.7149 108.026 79.7149 110.325ZM79.7149 105.069C78.6743 103.953 77.1684 103.341 75.0752 103.341C70.5593 103.341 67.4758 106.126 67.4758 110.299C67.4758 114.391 70.5379 117.253 75.0009 117.253C77.0472 117.253 78.5496 116.736 79.7149 115.576V116.808H83.8338V99L79.7149 100.062V105.069Z" fill="#265787"/>
<path d="M20.0185 106.549C22.4122 106.549 23.9173 108 23.9173 110.351C23.9173 112.668 22.3883 114.12 20.0185 114.12C17.6504 114.12 16.1207 112.617 16.1207 110.325C16.1207 108.026 17.6504 106.549 20.0185 106.549ZM16.1207 100.062L12 99V116.808H16.1207V115.576C17.28 116.736 18.785 117.253 20.8329 117.253C25.2985 117.253 28.3563 114.391 28.3563 110.299C28.3563 106.126 25.272 103.341 20.7587 103.341C18.6612 103.341 17.1562 103.953 16.1207 105.069V100.062Z" fill="#265787"/>
<path d="M101.851 116.808V104.511H105.969V105.271C107.203 103.786 108.508 103.046 109.993 103.046C110.287 103.046 110.658 103.094 111.15 103.143V106.649C110.753 106.597 110.311 106.597 109.842 106.597C107.447 106.597 105.969 108.176 105.969 110.862V116.808H101.851Z" fill="#265787"/>
<path d="M116.743 109.141V104.947H118.794C119.059 104.947 119.301 105.002 119.521 105.112C119.744 105.222 119.921 105.381 120.049 105.59C120.182 105.794 120.248 106.044 120.248 106.34C120.248 106.635 120.18 106.887 120.044 107.095C119.907 107.304 119.725 107.463 119.498 107.572C119.271 107.679 119.019 107.732 118.743 107.732H117.339V106.942H118.515C118.674 106.942 118.811 106.891 118.924 106.788C119.042 106.686 119.1 106.535 119.1 106.334C119.1 106.126 119.042 105.978 118.924 105.891C118.811 105.8 118.676 105.754 118.521 105.754H117.833V109.141H116.743ZM119.419 107.203L120.373 109.141H119.18L118.288 107.203H119.419ZM118.385 111.641C117.756 111.641 117.167 111.523 116.618 111.288C116.068 111.054 115.585 110.728 115.169 110.311C114.752 109.894 114.426 109.411 114.191 108.862C113.957 108.313 113.839 107.724 113.839 107.095C113.839 106.466 113.957 105.877 114.191 105.328C114.426 104.779 114.752 104.296 115.169 103.879C115.585 103.463 116.068 103.137 116.618 102.902C117.167 102.667 117.756 102.55 118.385 102.55C119.013 102.55 119.602 102.667 120.152 102.902C120.701 103.137 121.184 103.463 121.6 103.879C122.017 104.296 122.343 104.779 122.578 105.328C122.813 105.877 122.93 106.466 122.93 107.095C122.93 107.724 122.813 108.313 122.578 108.862C122.343 109.411 122.017 109.894 121.6 110.311C121.184 110.728 120.701 111.054 120.152 111.288C119.602 111.523 119.013 111.641 118.385 111.641ZM118.385 110.442C119.006 110.442 119.568 110.292 120.072 109.993C120.58 109.69 120.983 109.286 121.282 108.783C121.582 108.275 121.731 107.713 121.731 107.095C121.731 106.478 121.58 105.917 121.277 105.413C120.977 104.906 120.574 104.502 120.066 104.203C119.563 103.9 119.002 103.749 118.385 103.749C117.771 103.749 117.21 103.9 116.703 104.203C116.195 104.502 115.792 104.906 115.493 105.413C115.193 105.917 115.044 106.478 115.044 107.095C115.044 107.713 115.193 108.275 115.493 108.783C115.792 109.286 116.195 109.69 116.703 109.993C117.21 110.292 117.771 110.442 118.385 110.442Z" fill="#236192"/>
</g>
<defs>
<clipPath id="clip0_1_2">
<rect width="128" height="128" fill="white"/>
</clipPath>
</defs>
</svg>
