<svg width="128" height="128" viewBox="0 0 128 128" fill="none" xmlns="http://www.w3.org/2000/svg">
<path d="M33.0813 26.5117H27.3264C27.2212 25.7672 27.0066 25.1058 26.6825 24.5277C26.3584 23.9408 25.9424 23.4415 25.4343 23.0298C24.9263 22.6181 24.3394 22.3028 23.6737 22.0838C23.0167 21.8648 22.3028 21.7553 21.532 21.7553C20.1392 21.7553 18.926 22.1013 17.8924 22.7933C16.8588 23.4766 16.0573 24.4751 15.4879 25.7891C14.9186 27.0942 14.6339 28.6797 14.6339 30.5455C14.6339 32.4638 14.9186 34.0755 15.4879 35.3807C16.0661 36.6858 16.8719 37.6713 17.9055 38.337C18.9392 39.0027 20.1348 39.3356 21.4925 39.3356C22.2546 39.3356 22.9598 39.2348 23.608 39.0334C24.2649 38.8319 24.8474 38.5385 25.3555 38.1531C25.8635 37.7589 26.284 37.2815 26.6168 36.7209C26.9585 36.1603 27.195 35.5208 27.3264 34.8026L33.0813 34.8288C32.9324 36.0639 32.5601 37.2552 31.9645 38.4027C31.3776 39.5414 30.5849 40.5619 29.5863 41.4641C28.5965 42.3576 27.4139 43.0671 26.0387 43.5927C24.6722 44.1095 23.1262 44.3679 21.4006 44.3679C19.0005 44.3679 16.8544 43.8248 14.9624 42.7386C13.0791 41.6525 11.59 40.0801 10.495 38.0217C9.40885 35.9632 8.86577 33.4711 8.86577 30.5455C8.86577 27.611 9.41761 25.1146 10.5213 23.0561C11.625 20.9976 13.1229 19.4297 15.0149 18.3523C16.907 17.2661 19.0355 16.723 21.4006 16.723C22.9598 16.723 24.4051 16.942 25.7365 17.38C27.0767 17.8179 28.2636 18.4574 29.2972 19.2983C30.3308 20.1304 31.1718 21.1509 31.82 22.3597C32.4769 23.5685 32.8974 24.9525 33.0813 26.5117ZM42.6532 17.0909V44H37.0559V17.0909H42.6532ZM47.137 44V23.8182H52.7343V44H47.137ZM49.9488 21.2166C49.1166 21.2166 48.4027 20.9407 47.8071 20.3888C47.2202 19.8282 46.9268 19.1581 46.9268 18.3785C46.9268 17.6077 47.2202 16.9464 47.8071 16.3945C48.4027 15.8339 49.1166 15.5536 49.9488 15.5536C50.7809 15.5536 51.4904 15.8339 52.0773 16.3945C52.673 16.9464 52.9708 17.6077 52.9708 18.3785C52.9708 19.1581 52.673 19.8282 52.0773 20.3888C51.4904 20.9407 50.7809 21.2166 49.9488 21.2166ZM57.218 51.5682V23.8182H62.7365V27.2081H62.9862C63.2314 26.665 63.5862 26.1132 64.0504 25.5526C64.5234 24.9832 65.1366 24.5102 65.8899 24.1335C66.652 23.7481 67.598 23.5554 68.728 23.5554C70.1996 23.5554 71.5573 23.9408 72.8011 24.7116C74.045 25.4737 75.0392 26.6256 75.7837 28.1673C76.5283 29.7002 76.9006 31.6229 76.9006 33.9354C76.9006 36.1866 76.5371 38.0874 75.81 39.6378C75.0917 41.1795 74.1107 42.3488 72.8668 43.146C71.6317 43.9343 70.2478 44.3285 68.7148 44.3285C67.6287 44.3285 66.7045 44.1489 65.9425 43.7898C65.1892 43.4306 64.5716 42.9795 64.0898 42.4364C63.6081 41.8846 63.2402 41.3284 62.9862 40.7678H62.8153V51.5682H57.218ZM62.6971 33.9091C62.6971 35.1091 62.8635 36.1559 63.1964 37.0494C63.5292 37.9428 64.011 38.6392 64.6417 39.1385C65.2724 39.629 66.0388 39.8743 66.9411 39.8743C67.852 39.8743 68.6229 39.6246 69.2536 39.1254C69.8842 38.6173 70.3616 37.9165 70.6857 37.0231C71.0186 36.1209 71.185 35.0829 71.185 33.9091C71.185 32.7441 71.023 31.7192 70.6989 30.8345C70.3748 29.9498 69.8974 29.2578 69.2667 28.7585C68.636 28.2592 67.8608 28.0096 66.9411 28.0096C66.0301 28.0096 65.2592 28.2505 64.6286 28.7322C64.0066 29.214 63.5292 29.8973 63.1964 30.782C62.8635 31.6667 62.6971 32.709 62.6971 33.9091ZM23.9364 61.8299C23.8313 60.77 23.3802 59.9466 22.5831 59.3597C21.786 58.7728 20.7042 58.4794 19.3377 58.4794C18.4092 58.4794 17.6252 58.6108 16.9858 58.8736C16.3464 59.1276 15.8558 59.4824 15.5142 59.9379C15.1813 60.3933 15.0149 60.9102 15.0149 61.4883C14.9974 61.9701 15.0981 62.3905 15.3171 62.7496C15.5449 63.1088 15.8558 63.4197 16.25 63.6825C16.6442 63.9366 17.0997 64.1599 17.6165 64.3526C18.1333 64.5366 18.6851 64.6942 19.272 64.8256L21.6896 65.4038C22.8634 65.6665 23.9408 66.0169 24.9219 66.4549C25.9029 66.8929 26.7526 67.4316 27.4709 68.071C28.1892 68.7105 28.7454 69.4638 29.1396 70.331C29.5425 71.1982 29.7483 72.1924 29.7571 73.3136C29.7483 74.9603 29.3279 76.3881 28.4957 77.5969C27.6723 78.797 26.4811 79.7299 24.9219 80.3956C23.3714 81.0526 21.5013 81.381 19.3114 81.381C17.1391 81.381 15.247 81.0482 13.6353 80.3825C12.0323 79.7167 10.7797 78.7313 9.87749 77.4261C8.98402 76.1122 8.51539 74.4873 8.47159 72.5515H13.9769C14.0382 73.4537 14.2966 74.207 14.7521 74.8114C15.2164 75.4071 15.8339 75.8582 16.6048 76.1648C17.3844 76.4626 18.2647 76.6115 19.2457 76.6115C20.2093 76.6115 21.0458 76.4714 21.7553 76.1911C22.4736 75.9107 23.0298 75.521 23.424 75.0217C23.8182 74.5224 24.0153 73.9486 24.0153 73.3004C24.0153 72.696 23.8357 72.188 23.4766 71.7763C23.1262 71.3646 22.6094 71.0142 21.9261 70.7251C21.2517 70.4361 20.4239 70.1733 19.4428 69.9368L16.5128 69.201C14.2441 68.6491 12.4528 67.7863 11.1388 66.6126C9.82493 65.4388 9.17235 63.8577 9.18111 61.8693C9.17235 60.2401 9.60594 58.8166 10.4819 57.5991C11.3666 56.3815 12.5798 55.4311 14.1214 54.7479C15.6631 54.0646 17.415 53.723 19.3771 53.723C21.3743 53.723 23.1174 54.0646 24.6065 54.7479C26.1044 55.4311 27.2694 56.3815 28.1016 57.5991C28.9337 58.8166 29.3629 60.2269 29.3892 61.8299H23.9364ZM44.2135 60.8182V65.0227H32.0597V60.8182H44.2135ZM34.819 55.983H40.4163V74.7983C40.4163 75.3151 40.4951 75.718 40.6528 76.0071C40.8105 76.2874 41.0294 76.4845 41.3097 76.5984C41.5988 76.7122 41.9317 76.7692 42.3083 76.7692C42.5711 76.7692 42.8339 76.7473 43.0967 76.7035C43.3595 76.6509 43.5609 76.6115 43.7011 76.5852L44.5814 80.7504C44.3011 80.8379 43.9069 80.9387 43.3989 81.0526C42.8908 81.1752 42.2733 81.2496 41.5463 81.2759C40.1973 81.3285 39.0148 81.1489 37.9987 80.7372C36.9913 80.3255 36.2074 79.6861 35.6468 78.8189C35.0861 77.9517 34.8102 76.8568 34.819 75.5341V55.983ZM60.8018 72.407V60.8182H66.3991V81H61.0251V77.3342H60.8149C60.3594 78.5167 59.6017 79.4671 58.5418 80.1854C57.4907 80.9036 56.2074 81.2628 54.692 81.2628C53.3431 81.2628 52.1562 80.9562 51.1313 80.343C50.1064 79.7299 49.305 78.8583 48.7268 77.7283C48.1575 76.5984 47.8684 75.245 47.8596 73.6683V60.8182H53.4569V72.6697C53.4657 73.861 53.7854 74.8027 54.4161 75.4947C55.0468 76.1867 55.8921 76.5327 56.952 76.5327C57.6265 76.5327 58.2571 76.3794 58.844 76.0728C59.4309 75.7575 59.9039 75.2932 60.2631 74.68C60.6309 74.0669 60.8105 73.3092 60.8018 72.407ZM78.313 81.3285C76.7801 81.3285 75.3917 80.9343 74.1479 80.146C72.9128 79.3488 71.9318 78.1795 71.2047 76.6378C70.4864 75.0874 70.1273 73.1866 70.1273 70.9354C70.1273 68.6229 70.4996 66.7002 71.2441 65.1673C71.9887 63.6256 72.9785 62.4737 74.2136 61.7116C75.4574 60.9408 76.8195 60.5554 78.2999 60.5554C79.4299 60.5554 80.3715 60.7481 81.1248 61.1335C81.8869 61.5102 82.5001 61.9832 82.9643 62.5526C83.4373 63.1132 83.7965 63.665 84.0417 64.2081H84.2125V54.0909H89.7967V81H84.2782V77.7678H84.0417C83.7789 78.3284 83.4067 78.8846 82.9249 79.4364C82.4519 79.9795 81.8343 80.4306 81.0723 80.7898C80.319 81.1489 79.3992 81.3285 78.313 81.3285ZM80.0868 76.8743C80.9891 76.8743 81.7511 76.629 82.373 76.1385C83.0037 75.6392 83.4855 74.9428 83.8184 74.0494C84.16 73.1559 84.3308 72.1091 84.3308 70.9091C84.3308 69.709 84.1644 68.6667 83.8315 67.782C83.4986 66.8973 83.0169 66.214 82.3862 65.7322C81.7555 65.2505 80.9891 65.0096 80.0868 65.0096C79.1671 65.0096 78.3919 65.2592 77.7612 65.7585C77.1305 66.2578 76.6531 66.9498 76.329 67.8345C76.0049 68.7192 75.8429 69.7441 75.8429 70.9091C75.8429 72.0829 76.0049 73.1209 76.329 74.0231C76.6619 74.9165 77.1393 75.6173 77.7612 76.1254C78.3919 76.6246 79.1671 76.8743 80.0868 76.8743ZM94.3987 81V60.8182H99.996V81H94.3987ZM97.2105 58.2166C96.3783 58.2166 95.6644 57.9407 95.0688 57.3888C94.4819 56.8282 94.1885 56.1581 94.1885 55.3785C94.1885 54.6077 94.4819 53.9464 95.0688 53.3945C95.6644 52.8339 96.3783 52.5536 97.2105 52.5536C98.0426 52.5536 98.7522 52.8339 99.339 53.3945C99.9347 53.9464 100.233 54.6077 100.233 55.3785C100.233 56.1581 99.9347 56.8282 99.339 57.3888C98.7522 57.9407 98.0426 58.2166 97.2105 58.2166ZM113.598 81.3942C111.557 81.3942 109.792 80.9606 108.303 80.0934C106.823 79.2174 105.68 77.9999 104.874 76.4407C104.068 74.8728 103.665 73.0552 103.665 70.9879C103.665 68.9032 104.068 67.0812 104.874 65.522C105.68 63.9541 106.823 62.7365 108.303 61.8693C109.792 60.9934 111.557 60.5554 113.598 60.5554C115.639 60.5554 117.4 60.9934 118.88 61.8693C120.369 62.7365 121.517 63.9541 122.323 65.522C123.129 67.0812 123.532 68.9032 123.532 70.9879C123.532 73.0552 123.129 74.8728 122.323 76.4407C121.517 77.9999 120.369 79.2174 118.88 80.0934C117.4 80.9606 115.639 81.3942 113.598 81.3942ZM113.625 77.0582C114.553 77.0582 115.328 76.7955 115.95 76.2699C116.572 75.7356 117.041 75.0085 117.356 74.0888C117.68 73.169 117.842 72.1223 117.842 70.9485C117.842 69.7747 117.68 68.728 117.356 67.8082C117.041 66.8885 116.572 66.1615 115.95 65.6271C115.328 65.0928 114.553 64.8256 113.625 64.8256C112.687 64.8256 111.899 65.0928 111.26 65.6271C110.629 66.1615 110.152 66.8885 109.827 67.8082C109.512 68.728 109.354 69.7747 109.354 70.9485C109.354 72.1223 109.512 73.169 109.827 74.0888C110.152 75.0085 110.629 75.7356 111.26 76.2699C111.899 76.7955 112.687 77.0582 113.625 77.0582ZM9.33878 118V91.0909H19.9553C21.9962 91.0909 23.735 91.4807 25.1715 92.2603C26.6081 93.0311 27.703 94.1042 28.4563 95.4794C29.2184 96.8459 29.5994 98.4226 29.5994 100.21C29.5994 101.996 29.214 103.573 28.4432 104.94C27.6724 106.306 26.5555 107.37 25.0927 108.132C23.6386 108.895 21.878 109.276 19.8107 109.276H13.044V104.716H18.891C19.9859 104.716 20.8881 104.528 21.5977 104.151C22.3159 103.766 22.8503 103.236 23.2006 102.561C23.5598 101.878 23.7393 101.094 23.7393 100.21C23.7393 99.316 23.5598 98.5365 23.2006 97.8707C22.8503 97.1963 22.3159 96.6751 21.5977 96.3072C20.8794 95.9305 19.9684 95.7422 18.8647 95.7422H15.0281V118H9.33878ZM38.4027 118.381C37.1151 118.381 35.9676 118.158 34.9602 117.711C33.9529 117.255 33.1558 116.585 32.5689 115.701C31.9908 114.807 31.7017 113.695 31.7017 112.363C31.7017 111.242 31.9076 110.3 32.3192 109.538C32.7309 108.776 33.2915 108.163 34.0011 107.699C34.7106 107.235 35.5165 106.884 36.4187 106.648C37.3297 106.411 38.2844 106.245 39.283 106.148C40.4568 106.026 41.4028 105.912 42.1211 105.807C42.8394 105.693 43.3606 105.527 43.6847 105.308C44.0088 105.089 44.1708 104.764 44.1708 104.335V104.256C44.1708 103.424 43.908 102.78 43.3825 102.325C42.8656 101.869 42.1299 101.642 41.1751 101.642C40.1677 101.642 39.3662 101.865 38.7706 102.312C38.175 102.75 37.7808 103.302 37.5881 103.967L32.4112 103.547C32.674 102.321 33.1908 101.261 33.9616 100.367C34.7325 99.465 35.7267 98.773 36.9442 98.2912C38.1706 97.8007 39.5896 97.5554 41.2014 97.5554C42.3226 97.5554 43.3956 97.6868 44.4205 97.9496C45.4541 98.2124 46.3694 98.6197 47.1665 99.1715C47.9724 99.7234 48.6075 100.433 49.0717 101.3C49.536 102.158 49.7681 103.188 49.7681 104.388V118H44.4599V115.201H44.3022C43.9781 115.832 43.5445 116.388 43.0014 116.87C42.4583 117.343 41.8058 117.715 41.0437 117.987C40.2816 118.25 39.4013 118.381 38.4027 118.381ZM40.0057 114.518C40.8291 114.518 41.5561 114.356 42.1868 114.032C42.8175 113.699 43.3124 113.252 43.6715 112.692C44.0307 112.131 44.2102 111.496 44.2102 110.787V108.645C44.035 108.759 43.7942 108.864 43.4876 108.96C43.1897 109.048 42.8525 109.131 42.4759 109.21C42.0992 109.28 41.7225 109.346 41.3459 109.407C40.9692 109.46 40.6276 109.508 40.321 109.551C39.6641 109.648 39.0903 109.801 38.5998 110.011C38.1093 110.222 37.7282 110.506 37.4567 110.865C37.1851 111.216 37.0494 111.654 37.0494 112.179C37.0494 112.941 37.3253 113.524 37.8771 113.927C38.4377 114.321 39.1473 114.518 40.0057 114.518ZM54.1106 118V97.8182H59.7079V118H54.1106ZM56.9224 95.2166C56.0903 95.2166 55.3764 94.9407 54.7807 94.3888C54.1938 93.8282 53.9004 93.1581 53.9004 92.3785C53.9004 91.6077 54.1938 90.9464 54.7807 90.3945C55.3764 89.8339 56.0903 89.5536 56.9224 89.5536C57.7546 89.5536 58.4641 89.8339 59.051 90.3945C59.6466 90.9464 59.9444 91.6077 59.9444 92.3785C59.9444 93.1581 59.6466 93.8282 59.051 94.3888C58.4641 94.9407 57.7546 95.2166 56.9224 95.2166ZM69.789 106.332V118H64.1917V97.8182H69.5262V101.379H69.7627C70.2094 100.205 70.9584 99.2766 72.0095 98.5934C73.0606 97.9014 74.3351 97.5554 75.833 97.5554C77.2345 97.5554 78.4565 97.862 79.4988 98.4751C80.5412 99.0883 81.3515 99.9643 81.9296 101.103C82.5077 102.233 82.7968 103.582 82.7968 105.15V118H77.1995V106.148C77.2082 104.913 76.8929 103.95 76.2535 103.258C75.614 102.557 74.7337 102.207 73.6125 102.207C72.8592 102.207 72.1934 102.369 71.6153 102.693C71.046 103.017 70.5992 103.49 70.2751 104.112C69.9598 104.725 69.7977 105.465 69.789 106.332ZM97.943 97.8182V102.023H85.7892V97.8182H97.943ZM88.5485 92.983H94.1458V111.798C94.1458 112.315 94.2246 112.718 94.3823 113.007C94.54 113.287 94.7589 113.484 95.0392 113.598C95.3283 113.712 95.6612 113.769 96.0378 113.769C96.3006 113.769 96.5634 113.747 96.8262 113.703C97.089 113.651 97.2904 113.612 97.4306 113.585L98.3109 117.75C98.0306 117.838 97.6364 117.939 97.1284 118.053C96.6203 118.175 96.0028 118.25 95.2757 118.276C93.9268 118.328 92.7443 118.149 91.7282 117.737C90.7208 117.326 89.9368 116.686 89.3762 115.819C88.8156 114.952 88.5397 113.857 88.5485 112.534V92.983Z" fill="black"/>
</svg>
