<svg width="128" height="128" viewBox="0 0 128 128" fill="none" xmlns="http://www.w3.org/2000/svg">
<path d="M43.0682 88H32.5227L48.5909 41.4545H61.2727L77.3182 88H66.7727L55.1136 52.0909H54.75L43.0682 88ZM42.4091 69.7045H67.3182V77.3864H42.4091V69.7045ZM82.9261 88V53.0909H92.608V88H82.9261ZM87.7898 48.5909C86.3504 48.5909 85.1155 48.1136 84.0852 47.1591C83.0701 46.1894 82.5625 45.0303 82.5625 43.6818C82.5625 42.3485 83.0701 41.2045 84.0852 40.25C85.1155 39.2803 86.3504 38.7955 87.7898 38.7955C89.2292 38.7955 90.4564 39.2803 91.4716 40.25C92.5019 41.2045 93.017 42.3485 93.017 43.6818C93.017 45.0303 92.5019 46.1894 91.4716 47.1591C90.4564 48.1136 89.2292 48.5909 87.7898 48.5909Z" fill="black"/>
</svg>
