<svg width="128" height="128" viewBox="0 0 128 128" fill="none" xmlns="http://www.w3.org/2000/svg">
<path d="M4.03409 46.0909H13.1364L22.75 69.5455H23.1591L32.7727 46.0909H41.875V81H34.7159V58.2784H34.4261L25.392 80.8295H20.517L11.483 58.1932H11.1932V81H4.03409V46.0909ZM55.2855 81.4943C53.6151 81.4943 52.1264 81.2045 50.8196 80.625C49.5128 80.0341 48.4787 79.1648 47.7173 78.017C46.9673 76.858 46.5923 75.4148 46.5923 73.6875C46.5923 72.233 46.8594 71.0114 47.3935 70.0227C47.9276 69.0341 48.6548 68.2386 49.5753 67.6364C50.4957 67.0341 51.5412 66.5795 52.7116 66.2727C53.8935 65.9659 55.1321 65.75 56.4276 65.625C57.9503 65.4659 59.1776 65.3182 60.1094 65.1818C61.0412 65.0341 61.7173 64.8182 62.1378 64.5341C62.5582 64.25 62.7685 63.8295 62.7685 63.2727V63.1705C62.7685 62.0909 62.4276 61.2557 61.7457 60.6648C61.0753 60.0739 60.1207 59.7784 58.8821 59.7784C57.5753 59.7784 56.5355 60.0682 55.7628 60.6477C54.9901 61.2159 54.4787 61.9318 54.2287 62.7955L47.5128 62.25C47.8537 60.6591 48.5241 59.2841 49.5241 58.125C50.5241 56.9545 51.8139 56.0568 53.3935 55.4318C54.9844 54.7955 56.8253 54.4773 58.9162 54.4773C60.3707 54.4773 61.7628 54.6477 63.0923 54.9886C64.4332 55.3295 65.6207 55.858 66.6548 56.5739C67.7003 57.2898 68.5241 58.2102 69.1264 59.3352C69.7287 60.4489 70.0298 61.7841 70.0298 63.3409V81H63.1435V77.3693H62.9389C62.5185 78.1875 61.956 78.9091 61.2514 79.5341C60.5469 80.1477 59.7003 80.6307 58.7116 80.983C57.723 81.3239 56.581 81.4943 55.2855 81.4943ZM57.3651 76.483C58.4332 76.483 59.3764 76.2727 60.1946 75.8523C61.0128 75.4205 61.6548 74.8409 62.1207 74.1136C62.5866 73.3864 62.8196 72.5625 62.8196 71.642V68.8636C62.5923 69.0114 62.2798 69.1477 61.8821 69.2727C61.4957 69.3864 61.0582 69.4943 60.5696 69.5966C60.081 69.6875 59.5923 69.7727 59.1037 69.8523C58.6151 69.9205 58.1719 69.983 57.7741 70.0398C56.9219 70.1648 56.1776 70.3636 55.5412 70.6364C54.9048 70.9091 54.4105 71.2784 54.0582 71.7443C53.706 72.1989 53.5298 72.767 53.5298 73.4489C53.5298 74.4375 53.8878 75.1932 54.6037 75.7159C55.331 76.2273 56.2514 76.483 57.3651 76.483ZM79.2088 90.8182C78.2884 90.8182 77.4247 90.7443 76.6179 90.5966C75.8224 90.4602 75.1634 90.2841 74.6406 90.0682L76.277 84.6477C77.1293 84.9091 77.8963 85.0511 78.5781 85.0739C79.2713 85.0966 79.8679 84.9375 80.3679 84.5966C80.8793 84.2557 81.294 83.6761 81.6122 82.858L82.0384 81.75L72.6463 54.8182H80.2827L85.7031 74.0455H85.9759L91.4474 54.8182H99.1349L88.9588 83.8295C88.4702 85.2386 87.8054 86.4659 86.9645 87.5114C86.1349 88.5682 85.0838 89.3807 83.8111 89.9489C82.5384 90.5284 81.0043 90.8182 79.2088 90.8182ZM109.614 81.4943C107.943 81.4943 106.455 81.2045 105.148 80.625C103.841 80.0341 102.807 79.1648 102.045 78.017C101.295 76.858 100.92 75.4148 100.92 73.6875C100.92 72.233 101.188 71.0114 101.722 70.0227C102.256 69.0341 102.983 68.2386 103.903 67.6364C104.824 67.0341 105.869 66.5795 107.04 66.2727C108.222 65.9659 109.46 65.75 110.756 65.625C112.278 65.4659 113.506 65.3182 114.438 65.1818C115.369 65.0341 116.045 64.8182 116.466 64.5341C116.886 64.25 117.097 63.8295 117.097 63.2727V63.1705C117.097 62.0909 116.756 61.2557 116.074 60.6648C115.403 60.0739 114.449 59.7784 113.21 59.7784C111.903 59.7784 110.864 60.0682 110.091 60.6477C109.318 61.2159 108.807 61.9318 108.557 62.7955L101.841 62.25C102.182 60.6591 102.852 59.2841 103.852 58.125C104.852 56.9545 106.142 56.0568 107.722 55.4318C109.313 54.7955 111.153 54.4773 113.244 54.4773C114.699 54.4773 116.091 54.6477 117.42 54.9886C118.761 55.3295 119.949 55.858 120.983 56.5739C122.028 57.2898 122.852 58.2102 123.455 59.3352C124.057 60.4489 124.358 61.7841 124.358 63.3409V81H117.472V77.3693H117.267C116.847 78.1875 116.284 78.9091 115.58 79.5341C114.875 80.1477 114.028 80.6307 113.04 80.983C112.051 81.3239 110.909 81.4943 109.614 81.4943ZM111.693 76.483C112.761 76.483 113.705 76.2727 114.523 75.8523C115.341 75.4205 115.983 74.8409 116.449 74.1136C116.915 73.3864 117.148 72.5625 117.148 71.642V68.8636C116.92 69.0114 116.608 69.1477 116.21 69.2727C115.824 69.3864 115.386 69.4943 114.898 69.5966C114.409 69.6875 113.92 69.7727 113.432 69.8523C112.943 69.9205 112.5 69.983 112.102 70.0398C111.25 70.1648 110.506 70.3636 109.869 70.6364C109.233 70.9091 108.739 71.2784 108.386 71.7443C108.034 72.1989 107.858 72.767 107.858 73.4489C107.858 74.4375 108.216 75.1932 108.932 75.7159C109.659 76.2273 110.58 76.483 111.693 76.483Z" fill="black"/>
</svg>
