<svg width="128" height="128" viewBox="0 0 128 128" fill="none" xmlns="http://www.w3.org/2000/svg">
<path d="M29.0455 88V41.4545H47.4091C50.9394 41.4545 53.947 42.1288 56.4318 43.4773C58.9167 44.8106 60.8106 46.6667 62.1136 49.0455C63.4318 51.4091 64.0909 54.1364 64.0909 57.2273C64.0909 60.3182 63.4242 63.0455 62.0909 65.4091C60.7576 67.7727 58.8258 69.6136 56.2955 70.9318C53.7803 72.25 50.7348 72.9091 47.1591 72.9091H35.4545V65.0227H45.5682C47.4621 65.0227 49.0227 64.697 50.25 64.0455C51.4924 63.3788 52.4167 62.4621 53.0227 61.2955C53.6439 60.1136 53.9545 58.7576 53.9545 57.2273C53.9545 55.6818 53.6439 54.3333 53.0227 53.1818C52.4167 52.0151 51.4924 51.1136 50.25 50.4773C49.0076 49.8258 47.4318 49.5 45.5227 49.5H38.8864V88H29.0455ZM99.3466 63.0455L90.483 63.5909C90.3314 62.8333 90.0057 62.1515 89.5057 61.5455C89.0057 60.9242 88.3466 60.4318 87.5284 60.0682C86.7254 59.6894 85.7633 59.5 84.642 59.5C83.142 59.5 81.8769 59.8182 80.8466 60.4545C79.8163 61.0758 79.3011 61.9091 79.3011 62.9545C79.3011 63.7879 79.6345 64.4924 80.3011 65.0682C80.9678 65.6439 82.1117 66.1061 83.733 66.4545L90.0511 67.7273C93.4451 68.4242 95.9754 69.5455 97.642 71.0909C99.3087 72.6364 100.142 74.6667 100.142 77.1818C100.142 79.4697 99.4678 81.4773 98.1193 83.2045C96.786 84.9318 94.9527 86.2803 92.6193 87.25C90.3011 88.2045 87.6269 88.6818 84.5966 88.6818C79.9754 88.6818 76.2936 87.7197 73.5511 85.7955C70.8239 83.8561 69.2254 81.2197 68.7557 77.8864L78.2784 77.3864C78.5663 78.7955 79.2633 79.8712 80.3693 80.6136C81.4754 81.3409 82.892 81.7045 84.6193 81.7045C86.3163 81.7045 87.6799 81.3788 88.7102 80.7273C89.7557 80.0606 90.286 79.2045 90.3011 78.1591C90.286 77.2803 89.9148 76.5606 89.1875 76C88.4602 75.4242 87.339 74.9848 85.8239 74.6818L79.7784 73.4773C76.3693 72.7955 73.8314 71.6136 72.1648 69.9318C70.5133 68.25 69.6875 66.1061 69.6875 63.5C69.6875 61.2576 70.2936 59.3258 71.5057 57.7045C72.733 56.0833 74.4527 54.8333 76.6648 53.9545C78.892 53.0758 81.4981 52.6364 84.483 52.6364C88.892 52.6364 92.3617 53.5682 94.892 55.4318C97.4375 57.2955 98.9223 59.8333 99.3466 63.0455Z" fill="black"/>
</svg>
