<svg width="128" height="128" viewBox="0 0 128 128" fill="none" xmlns="http://www.w3.org/2000/svg">
<g clip-path="url(#clip0_45_3)">
<rect width="125" height="111.215" transform="translate(2 8)" fill="white"/>
<path d="M104.772 44.0489C103.442 43.5924 102.101 43.1685 100.75 42.7772C100.975 41.8641 101.183 40.9475 101.375 40.0272C104.418 25.2446 102.429 13.3315 95.625 9.40761C89.1033 5.64674 78.4402 9.57066 67.6685 18.9457C66.6069 19.8696 65.5706 20.8207 64.5598 21.7989C63.8822 21.1467 63.1938 20.5091 62.4946 19.8859C51.2011 9.86957 39.8804 5.65218 33.087 9.57609C26.5815 13.3478 24.6522 24.5489 27.3804 38.5598C27.6594 39.9475 27.9674 41.3279 28.3043 42.7011C26.712 43.1576 25.163 43.6413 23.6848 44.1576C10.4511 48.7772 2 56.0054 2 63.5054C2 71.25 11.0761 79.0217 24.8587 83.7228C25.9746 84.1069 27.1014 84.462 28.2391 84.788C27.8696 86.2627 27.5435 87.7482 27.2609 89.2446C24.6413 103.011 26.6848 113.946 33.1848 117.696C39.8913 121.565 51.1522 117.587 62.125 108C62.9946 107.246 63.8641 106.446 64.7337 105.598C65.8279 106.659 66.9511 107.688 68.1033 108.685C78.7337 117.826 89.2228 121.511 95.712 117.761C102.424 113.875 104.603 102.13 101.772 87.8424C101.554 86.7554 101.304 85.6431 101.022 84.5054C101.812 84.2735 102.587 84.0326 103.348 83.7826C117.679 79.0326 127 71.3533 127 63.5054C127 55.9728 118.277 48.6957 104.772 44.0489ZM71.1848 22.9783C80.413 14.9457 89.038 11.7826 92.9783 14.0435C97.163 16.4565 98.7826 26.1902 96.1522 38.9565C95.9819 39.7899 95.7953 40.6178 95.5924 41.4402C90.0843 40.1917 84.4997 39.3094 78.875 38.7989C75.652 34.1695 72.1205 29.7628 68.3043 25.6087C69.2391 24.7101 70.1956 23.8333 71.1739 22.9783H71.1848ZM38.9022 69.9022C40.0362 72.0906 41.2192 74.2464 42.4511 76.3696C43.7083 78.5435 45.0163 80.6866 46.375 82.7989C42.5053 82.3806 38.6597 81.7638 34.8533 80.9511C35.962 77.3804 37.3207 73.6685 38.9076 69.9076L38.9022 69.9022ZM38.9022 57.3478C37.3478 53.663 36.0217 50.038 34.9348 46.5326C38.4946 45.7337 42.2989 45.0815 46.2609 44.587C44.9348 46.6522 43.6576 48.7536 42.4293 50.8913C41.1975 53.0145 40.0254 55.1667 38.9022 57.3478ZM41.7391 63.6304C43.3841 60.2065 45.1594 56.8478 47.0652 53.5543C48.9565 50.2572 50.9746 47.0417 53.1196 43.9076C56.837 43.625 60.6467 43.4728 64.5 43.4728C68.3696 43.4728 72.1848 43.625 75.9022 43.9076C78.0217 47.0417 80.029 50.2482 81.9239 53.5272C83.8297 56.8098 85.6268 60.1522 87.3152 63.5543C85.6485 66.9891 83.8587 70.3623 81.9457 73.6739C80.0507 76.9638 78.0507 80.1884 75.9457 83.3478C72.2391 83.6196 68.4076 83.75 64.5 83.75C60.6087 83.75 56.8261 83.6304 53.1848 83.3913C51.0254 80.2391 48.9891 77.0091 47.0761 73.7011C45.1703 70.404 43.3913 67.0453 41.7391 63.625V63.6304ZM86.5761 76.3478C87.8297 74.163 89.0362 71.9529 90.1957 69.7174C91.7837 73.3089 93.1841 76.9806 94.3913 80.7174C90.5426 81.581 86.6514 82.2432 82.7337 82.7011C84.0525 80.6069 85.3315 78.4873 86.5706 76.3424L86.5761 76.3478ZM90.1413 57.3533C88.9891 55.1649 87.7935 52.9982 86.5543 50.8533C85.3297 48.7446 84.0616 46.6612 82.75 44.6033C86.7337 45.1087 90.5543 45.7772 94.1467 46.5978C92.9933 50.2498 91.6565 53.8359 90.1413 57.3533ZM64.5543 29.4402C67.1552 32.2745 69.6113 35.2385 71.913 38.3207C66.9928 38.0851 62.0688 38.0851 57.1413 38.3207C59.5707 35.1141 62.0543 32.1359 64.5543 29.4402ZM35.7717 14.1957C39.9565 11.7772 49.1956 15.2283 58.9456 23.8859C59.5706 24.4402 60.1957 25.0163 60.8207 25.6141C56.9824 29.7688 53.4239 34.1734 50.1685 38.7989C44.5604 39.3024 38.9908 40.1683 33.4946 41.3913C33.1757 40.1159 32.8895 38.8297 32.6359 37.5326V37.5435C30.2826 25.5326 31.8424 16.4783 35.7717 14.2065V14.1957ZM29.663 79.6467C28.6304 79.3496 27.6051 79.029 26.587 78.6848C21.2902 77.0185 16.3455 74.3914 12 70.9348C10.7565 70.0799 9.70152 68.9791 8.9004 67.7003C8.09928 66.4215 7.56901 64.9919 7.34239 63.5C7.34239 58.9511 14.125 53.1467 25.4402 49.2065C26.8641 48.7065 28.2989 48.2536 29.7446 47.8478C31.4235 53.2371 33.4569 58.5095 35.8315 63.6304C33.4269 68.8259 31.3681 74.1745 29.6685 79.6413L29.663 79.6467ZM58.6087 103.995C54.52 107.745 49.7762 110.711 44.6141 112.745C43.2544 113.396 41.7754 113.763 40.2686 113.821C38.7618 113.879 37.2591 113.627 35.8533 113.082C31.913 110.799 30.2717 102.027 32.5054 90.2554C32.7735 88.8605 33.0779 87.4765 33.4185 86.1033C38.9729 87.295 44.6017 88.1085 50.2663 88.538C53.5481 93.1885 57.1319 97.6184 60.9946 101.799C60.2192 102.549 59.4257 103.279 58.6141 103.989L58.6087 103.995ZM64.7065 97.9511C62.1739 95.2228 59.6522 92.2011 57.1848 88.9511C59.5761 89.0453 62.0145 89.0924 64.5 89.0924C67.0471 89.0924 69.5616 89.038 72.0435 88.9293C69.7535 92.0599 67.3046 95.0711 64.7065 97.9511ZM97.1359 105.38C97.0208 106.885 96.5982 108.35 95.8943 109.685C95.1904 111.02 94.2201 112.196 93.0435 113.141C89.1033 115.424 80.6793 112.457 71.5924 104.641C70.5525 103.75 69.5054 102.797 68.4511 101.783C72.2394 97.5888 75.7402 93.1439 78.9293 88.4783C84.6256 87.9979 90.2821 87.1263 95.8587 85.8696C96.1123 86.8986 96.3369 87.9058 96.5326 88.8913C97.7422 94.3062 97.9448 99.8976 97.1304 105.386L97.1359 105.38ZM101.668 78.712C100.978 78.9402 100.277 79.1576 99.5598 79.3641C97.8129 73.9495 95.6993 68.6601 93.2337 63.5326C95.6083 58.4749 97.6418 53.264 99.3206 47.9348C100.592 48.2989 101.837 48.6957 103.033 49.1033C114.609 53.0815 121.663 58.9728 121.663 63.5054C121.663 68.3424 114.038 74.6141 101.663 78.712H101.668Z" fill="#61DAFB"/>
<path d="M64.5 52.3424C66.7083 52.3424 68.867 52.9974 70.703 54.2245C72.539 55.4516 73.9698 57.1956 74.8144 59.236C75.659 61.2764 75.8794 63.5215 75.4478 65.6872C75.0162 67.8529 73.9519 69.842 72.3896 71.4027C70.8274 72.9635 68.8373 74.0258 66.6712 74.4553C64.505 74.8848 62.2602 74.6622 60.2206 73.8156C58.181 72.969 56.4383 71.5366 55.213 69.6994C53.9877 67.8622 53.3348 65.7029 53.337 63.4946C53.3413 60.5368 54.5193 57.7016 56.6123 55.6116C58.7053 53.5217 61.5422 52.3424 64.5 52.3424Z" fill="#61DAFB"/>
</g>
<defs>
<clipPath id="clip0_45_3">
<rect width="125" height="111.215" fill="white" transform="translate(2 8)"/>
</clipPath>
</defs>
</svg>
