<svg width="128" height="128" viewBox="0 0 128 128" fill="none" xmlns="http://www.w3.org/2000/svg">
<g clip-path="url(#clip0_2_89)">
<rect width="128" height="128" fill="#3178C6"/>
<path d="M115.5 0H12.5C5.59644 0 0 5.59644 0 12.5V115.5C0 122.404 5.59644 128 12.5 128H115.5C122.404 128 128 122.404 128 115.5V12.5C128 5.59644 122.404 0 115.5 0Z" fill="#3178C6"/>
<path d="M115.5 0H12.5C5.59644 0 0 5.59644 0 12.5V115.5C0 122.404 5.59644 128 12.5 128H115.5C122.404 128 128 122.404 128 115.5V12.5C128 5.59644 122.404 0 115.5 0Z" fill="#3178C6"/>
<path fill-rule="evenodd" clip-rule="evenodd" d="M79.2347 101.856V114.371C81.2692 115.414 83.6755 116.196 86.4535 116.718C89.2315 117.239 92.1593 117.5 95.2373 117.5C98.237 117.5 101.086 117.213 103.786 116.64C106.486 116.066 108.853 115.121 110.888 113.804C112.922 112.487 114.533 110.767 115.72 108.642C116.907 106.517 117.5 103.89 117.5 100.761C117.5 98.4925 117.161 96.5045 116.483 94.7968C115.804 93.089 114.826 91.5703 113.548 90.2405C112.27 88.9108 110.738 87.7178 108.951 86.6618C107.164 85.6058 105.149 84.6085 102.906 83.67C101.263 82.992 99.789 82.3337 98.4847 81.695C97.1805 81.056 96.072 80.4043 95.159 79.7395C94.246 79.0745 93.5417 78.3705 93.0462 77.6275C92.5508 76.8843 92.3027 76.0435 92.3027 75.1048C92.3027 74.2445 92.5245 73.4687 92.968 72.7777C93.4115 72.0867 94.0375 71.4938 94.846 70.9983C95.6547 70.503 96.6458 70.1182 97.8195 69.8445C98.9935 69.5707 100.297 69.434 101.732 69.434C102.775 69.434 103.878 69.5123 105.038 69.6685C106.199 69.825 107.366 70.0662 108.54 70.392C109.714 70.718 110.855 71.1288 111.964 71.624C113.072 72.1195 114.096 72.693 115.035 73.345V61.651C113.131 60.921 111.051 60.38 108.795 60.028C106.538 59.676 103.949 59.5 101.028 59.5C98.0543 59.5 95.2373 59.8195 92.5768 60.4582C89.9163 61.097 87.5752 62.0943 85.5535 63.45C83.532 64.806 81.9345 66.5332 80.7607 68.6322C79.587 70.731 79 73.2405 79 76.1608C79 79.8893 80.076 83.0703 82.228 85.7038C84.3797 88.337 87.6468 90.5663 92.029 92.3915C93.7505 93.0955 95.3548 93.7862 96.8415 94.4642C98.3282 95.1423 99.613 95.8462 100.695 96.5762C101.778 97.3062 102.632 98.1015 103.258 98.962C103.884 99.8222 104.197 100.8 104.197 101.895C104.197 102.703 104.002 103.453 103.61 104.144C103.219 104.835 102.626 105.435 101.83 105.943C101.035 106.451 100.043 106.849 98.8565 107.136C97.6695 107.423 96.2807 107.566 94.6895 107.566C91.9767 107.566 89.2903 107.09 86.6295 106.138C83.969 105.187 81.504 103.76 79.2347 101.856ZM58.195 71.0205H74.25V60.75H29.5V71.0205H45.4765V116.75H58.195V71.0205Z" fill="white"/>
</g>
<defs>
<clipPath id="clip0_2_89">
<rect width="128" height="128" fill="white"/>
</clipPath>
</defs>
</svg>
