<svg width="24" height="26" viewBox="0 0 24 26" fill="none" xmlns="http://www.w3.org/2000/svg">
<path d="M1.08824 3.41169L3.20589 0.705811V20.2352H1.08824V3.41169Z" fill="#252528"/>
<path fill-rule="evenodd" clip-rule="evenodd" d="M20.0824 1.18097C20.3398 0.982806 20.7092 1.03086 20.9073 1.2883L20.4412 1.6471C20.9073 1.2883 20.9073 1.28826 20.9073 1.2883L20.911 1.29307L20.9203 1.30529C20.9284 1.31584 20.94 1.33116 20.9549 1.35083C20.9846 1.39015 21.0272 1.44692 21.0796 1.51784C21.1843 1.65953 21.3287 1.85847 21.4879 2.08808C21.8014 2.5401 22.1913 3.13761 22.4415 3.65612C22.7356 4.26534 22.9823 5.06647 23.1519 5.69058C23.2381 6.00762 23.307 6.28856 23.3543 6.49045C23.378 6.59151 23.3964 6.67304 23.4089 6.72971C23.4152 6.75805 23.42 6.7802 23.4233 6.79548L23.4271 6.81318L23.4281 6.81802L23.4286 6.81999C23.4286 6.82005 23.4286 6.8201 22.8529 6.94122L23.4286 6.81999C23.4954 7.1379 23.292 7.44996 22.9741 7.51685C22.6562 7.58374 22.3442 7.38028 22.2773 7.06241C22.2773 7.06239 22.2773 7.06243 22.2773 7.06241L22.2764 7.05822L22.2733 7.04343C22.2704 7.03014 22.266 7.01008 22.2602 6.98391C22.2487 6.93157 22.2314 6.85487 22.2089 6.75908C22.1639 6.56729 22.0984 6.30007 22.0167 5.99921C21.8504 5.38753 21.6265 4.67396 21.382 4.1675C21.1739 3.73632 20.8284 3.20147 20.5212 2.75856C20.3701 2.54071 20.2328 2.35153 20.1334 2.21698C20.0837 2.14978 20.0437 2.0964 20.0163 2.0601C20.0025 2.04195 19.992 2.02809 19.985 2.01892L19.9772 2.00873L19.975 2.0059C19.975 2.00589 19.9751 2.00592 19.975 2.0059C19.7769 1.74847 19.825 1.37911 20.0824 1.18097Z" fill="#252528"/>
<path d="M6.5 6.50007C6.5 6.11022 6.81603 5.79419 7.20588 5.79419H16.3824C16.7722 5.79419 17.0882 6.11022 17.0882 6.50007V7.5589C17.0882 7.94874 16.7722 8.26478 16.3824 8.26478H7.20588C6.81603 8.26478 6.5 7.94874 6.5 7.5589V6.50007Z" fill="#252528"/>
<path d="M6.5 10.353C6.5 9.96316 6.81603 9.64713 7.20588 9.64713H16.3824C16.7722 9.64713 17.0882 9.96316 17.0882 10.353V11.4118C17.0882 11.8017 16.7722 12.1177 16.3824 12.1177H7.20588C6.81603 12.1177 6.5 11.8017 6.5 11.4118V10.353Z" fill="#252528"/>
<path fill-rule="evenodd" clip-rule="evenodd" d="M5.79412 1.41176C3.64938 1.41176 1.91176 3.14765 1.91176 5.29123V20.151C1.98516 20.1038 2.05884 20.0603 2.13207 20.0203C2.51735 19.8097 2.89541 19.6899 3.17263 19.6222C3.31268 19.588 3.43087 19.5662 3.51658 19.5526C3.55953 19.5459 3.59462 19.5411 3.62054 19.5379C3.63351 19.5363 3.64421 19.5351 3.65248 19.5342C3.65468 19.534 3.65856 19.5336 3.65856 19.5336L3.66307 19.5331L3.66697 19.5327L3.66856 19.5326C3.66856 19.5326 3.66991 19.5324 3.73529 20.2353L3.66991 19.5324C3.69165 19.5304 3.71346 19.5294 3.73529 19.5294H19.7353V1.41176H5.79412ZM3.77708 20.9412H20.4412C20.831 20.9412 21.1471 20.6251 21.1471 20.2353V0.705882C21.1471 0.316034 20.831 0 20.4412 0H5.79412C2.87084 0 0.5 2.36679 0.5 5.29123V22.7647C0.5 24.2632 1.33566 25.1052 2.13766 25.5342C2.52582 25.7418 2.90647 25.8558 3.18525 25.9185C3.32614 25.9501 3.44505 25.9696 3.53134 25.9814C3.57459 25.9873 3.60994 25.9912 3.63611 25.9939C3.6492 25.9952 3.66002 25.9962 3.66841 25.9969C3.67051 25.9971 3.67425 25.9974 3.67425 25.9974L3.67916 25.9978L3.68314 25.9981L3.68477 25.9982C3.68477 25.9982 3.68617 25.9983 3.73529 25.2941L3.68617 25.9983C3.70252 25.9994 3.7189 26 3.73529 26H20.9706C22.4 26 23.5588 24.8412 23.5588 23.4118V5.76471C23.5588 5.37486 23.2428 5.05882 22.8529 5.05882C22.4631 5.05882 22.1471 5.37486 22.1471 5.76471V23.4118C22.1471 24.0615 21.6203 24.5882 20.9706 24.5882H3.76814C3.75698 24.587 3.74139 24.5852 3.72188 24.5825C3.66984 24.5754 3.59114 24.5627 3.4949 24.5411C3.29941 24.4971 3.04771 24.4199 2.80352 24.2893C2.34081 24.0418 1.91176 23.6192 1.91176 22.7647C1.91176 21.9452 2.335 21.5182 2.80911 21.2591C3.05617 21.1241 3.31047 21.0418 3.50752 20.9936C3.6046 20.9699 3.68402 20.9554 3.73664 20.9471C3.75289 20.9446 3.76646 20.9426 3.77708 20.9412Z" fill="#252528"/>
<path fill-rule="evenodd" clip-rule="evenodd" d="M1 22.9706C1 22.7107 1.21069 22.5 1.47059 22.5H18.8824C19.1423 22.5 19.3529 22.7107 19.3529 22.9706C19.3529 23.2305 19.1423 23.4412 18.8824 23.4412H1.47059C1.21069 23.4412 1 23.2305 1 22.9706Z" fill="#252528"/>
</svg>
