<svg width="32" height="32" viewBox="0 0 32 32" fill="none" xmlns="http://www.w3.org/2000/svg">
<path fill-rule="evenodd" clip-rule="evenodd" d="M15.9988 3C8.82104 3 3 8.75446 3 15.8534C3 21.5313 6.72454 26.3491 11.8904 28.0494C12.5408 28.167 12.7778 27.7702 12.7778 27.4293C12.7778 27.1238 12.7667 26.316 12.7603 25.2436C9.14427 26.0201 8.38132 23.5204 8.38132 23.5204C7.78995 22.0355 6.93764 21.6402 6.93764 21.6402C5.75731 20.8433 7.02702 20.8591 7.02702 20.8591C8.33185 20.9498 9.01818 22.1839 9.01818 22.1839C10.1778 24.1476 12.0612 23.5803 12.8018 23.2513C12.9199 22.4213 13.2559 21.8547 13.627 21.5336C10.7404 21.2085 7.70537 20.1063 7.70537 15.1811C7.70537 13.7774 8.21214 12.631 9.04371 11.7323C8.90964 11.4072 8.46353 10.1005 9.1714 8.33072C9.1714 8.33072 10.2623 7.9851 12.7459 9.6476C13.7826 9.36276 14.8951 9.22074 16.0004 9.21521C17.1049 9.22074 18.2166 9.36276 19.2549 9.6476C21.7369 7.9851 22.8262 8.33072 22.8262 8.33072C23.5357 10.1005 23.0896 11.4072 22.9563 11.7323C23.7894 12.631 24.2922 13.7774 24.2922 15.1811C24.2922 20.1189 21.2524 21.2055 18.3571 21.5233C18.8231 21.9203 19.2389 22.7046 19.2389 23.9039C19.2389 25.6216 19.223 27.0079 19.223 27.4293C19.223 27.7732 19.4576 28.1734 20.1168 28.0478C25.2786 26.3443 29 21.5304 29 15.8534C29 8.75446 23.1789 3 15.9988 3Z" fill="black"/>
</svg>
