<svg width="32" height="32" viewBox="0 0 32 32" fill="none" xmlns="http://www.w3.org/2000/svg">
<path fill-rule="evenodd" clip-rule="evenodd" d="M4 9.14286C4 6.30254 6.30254 4 9.14286 4H22.8571C25.6975 4 28 6.30254 28 9.14286V22.8571C28 25.6975 25.6975 28 22.8571 28H9.14286C6.30254 28 4 25.6975 4 22.8571V9.14286ZM9.14286 5.71429C7.24931 5.71429 5.71429 7.24931 5.71429 9.14286V22.8571C5.71429 24.7507 7.24931 26.2857 9.14286 26.2857H22.8571C24.7507 26.2857 26.2857 24.7507 26.2857 22.8571V9.14286C26.2857 7.24931 24.7507 5.71429 22.8571 5.71429H9.14286Z" fill="#252528"/>
<path d="M22 12.5C22 13.3284 21.3284 14 20.5 14C19.6716 14 19 13.3284 19 12.5C19 11.6716 19.6716 11 20.5 11C21.3284 11 22 11.6716 22 12.5Z" fill="#252528"/>
<path d="M13 12.5C13 13.3284 12.3284 14 11.5 14C10.6716 14 10 13.3284 10 12.5C10 11.6716 10.6716 11 11.5 11C12.3284 11 13 11.6716 13 12.5Z" fill="#252528"/>
<path fill-rule="evenodd" clip-rule="evenodd" d="M12.4293 17.7261C12.8962 17.6476 13.3382 17.9625 13.4167 18.4293C13.6156 19.6125 14.7063 20.2857 16 20.2857C17.2937 20.2857 18.3844 19.6125 18.5833 18.4293C18.6618 17.9625 19.1038 17.6476 19.5707 17.7261C20.0375 17.8046 20.3523 18.2466 20.2738 18.7135C19.8865 21.0178 17.7905 22 16 22C14.2095 22 12.1135 21.0178 11.7261 18.7135C11.6477 18.2466 11.9625 17.8046 12.4293 17.7261Z" fill="#252528"/>
</svg>
